<svg width="165" height="31" viewBox="0 0 165 31" fill="none" xmlns="http://www.w3.org/2000/svg">
    <path d="M23.772 7.47H7.522L4.08 30.68h18.47l3.14-21.512c.155-.93-.859-1.697-1.917-1.697z" fill="#006BFF"/>
    <path opacity=".9" d="M19.693.195H3.443L0 23.407h18.469l3.14-21.512c.156-.931-.858-1.7-1.916-1.7z" fill="#00F"/>
    <path d="M5.158 23.407h13.311l2.326-15.934H7.523L5.158 23.407z" fill="#2F7BF3" style="mix-blend-mode:screen"/>
    <path d="M38.663.345c2.669 0 4.578.636 5.725 1.907 1.148 1.27 1.544 3.132 1.188 5.584l-2.238 15.328c-.358 2.453-1.297 4.315-2.816 5.584-1.52 1.27-3.614 1.905-6.283 1.907h-8.493L30.154.345h8.509zm-6.904 25.979h3.027a3.28 3.28 0 0 0 1.142-.156c.366-.118.701-.3.987-.534.537-.46.884-1.212 1.037-2.252l2.3-15.76c.152-1.04.026-1.79-.378-2.251-.405-.462-1.046-.692-1.925-.69h-3.041l-3.149 21.643zM72.974 13.768 71.57 23.38c-.358 2.453-1.316 4.337-2.873 5.651-1.558 1.314-3.64 1.97-6.245 1.969-2.604 0-4.493-.656-5.669-1.969-1.175-1.312-1.583-3.196-1.224-5.651l2.3-15.76c.358-2.453 1.316-4.337 2.874-5.651C62.29.655 64.373-.001 66.978 0c2.593 0 4.482.656 5.666 1.969 1.185 1.312 1.594 3.196 1.227 5.651l-.43 2.944h-5.075l.477-3.248c.29-1.993-.492-2.99-2.347-2.99s-2.928.997-3.218 2.99l-2.389 16.367c-.285 1.965.5 2.946 2.355 2.945 1.855-.002 2.925-.983 3.21-2.945l.817-5.586h-2.448l.633-4.329h7.518zM101.58 2.056c1.104 1.141 1.484 2.894 1.138 5.26l-.163 1.084c-.228 1.556-.7 2.84-1.416 3.852-.7.998-1.726 1.783-2.94 2.252 2.532.92 3.55 3.085 3.054 6.495l-.36 2.468c-.346 2.337-1.297 4.12-2.853 5.348-1.556 1.228-3.671 1.841-6.346 1.84h-8.443L87.672.345h8.107c2.764 0 4.698.57 5.801 1.711zM91.243 12.685h2.098c1.074 0 1.916-.246 2.526-.736.61-.491.998-1.314 1.164-2.468l.246-1.688c.161-1.098.058-1.892-.31-2.381-.369-.49-1.025-.734-1.969-.736h-2.593l-1.162 8.009zm-1.992 13.639h3.076c.944 0 1.675-.23 2.2-.672.523-.441.86-1.219 1.018-2.316l.387-2.64c.202-1.38.073-2.34-.387-2.88-.456-.534-1.296-.8-2.541-.8H90.61l-1.359 9.308zM108.913 1.992C110.506.665 112.622.002 115.262 0c2.64-.002 4.56.662 5.762 1.992 1.21 1.326 1.636 3.202 1.278 5.628l-2.3 15.76c-.346 2.424-1.319 4.3-2.92 5.628-1.601 1.328-3.715 1.992-6.343 1.992-2.638 0-4.56-.664-5.765-1.992-1.205-1.328-1.63-3.204-1.276-5.628l2.301-15.76c.349-2.424 1.32-4.3 2.914-5.628zm2.459 24.68c1.857 0 2.929-.997 3.218-2.99l2.391-16.368c.29-1.993-.492-2.99-2.347-2.99s-2.928.997-3.221 2.99l-2.388 16.367c-.296 1.994.487 2.99 2.347 2.99zM136.246 15.068l3.729 15.587h-5.661l-2.645-11.995-6.192 11.995h-5.029l8.28-15.587-3.464-14.72h5.557l2.422 11.17L139.029.346h4.979l-7.762 14.723zM157.238 15.068l3.729 15.587h-5.663l-2.643-11.995-6.192 11.995h-5.016l8.281-15.587-3.468-14.72h5.56l2.422 11.17L160.021.346H165l-7.762 14.723zM54.32 5.198c.065 0 .129-.01.189-.032a.495.495 0 0 0 .159-.094.432.432 0 0 0 .106-.142.39.39 0 0 0 .037-.167.411.411 0 0 0-.144-.307.523.523 0 0 0-.346-.127h-4.816l-3.843 26.326h5.37l3.774-25.892a.389.389 0 0 1-.036.166.433.433 0 0 1-.105.14.496.496 0 0 1-.158.095.542.542 0 0 1-.186.034zm-.49-.435a.39.39 0 0 0 .145.308.417.417 0 0 1-.15-.308h.006zM82.706 5.198c.13 0 .255-.046.347-.127a.411.411 0 0 0 .143-.308.411.411 0 0 0-.143-.307.524.524 0 0 0-.347-.127h-4.813l-3.84 26.326h5.368l3.775-25.892a.411.411 0 0 1-.143.308.524.524 0 0 1-.347.127zm-.49-.435a.388.388 0 0 0 0 0z" fill="#00F"/>
</svg>
